<svg xmlns="http://www.w3.org/2000/svg" width="614" height="504" viewBox="0 0 683.597 560.16"><path d="M298.236,32.4L394.98,32.4A7.5,7.5 0 0 0 402.48,24.9L402.48,9.66A7.5,7.5 0 0 0 394.98,2.16L298.236,2.16A7.5,7.5 0 0 0 290.736,9.66L290.736,24.9A7.5,7.5 0 0 0 298.236,32.4Z" style="fill:#e8e8e8;stroke:rgb(0,0,0);stroke-width:2.16;"/><text x="346.608" y="17.28" fill="rgb(0,0,0)" text-anchor="middle" dominant-baseline="central">YAML bytes</text><polygon points="346.608,90 342.288,78.48 350.928,78.48" style="fill:rgb(0,0,0);"/><path d="M346.608,32.4L346.608,84.24" style="fill:none;stroke:rgb(0,0,0);stroke-width:2.16;"/><path d="M269.148,140.4L424.068,140.4A7.5,7.5 0 0 0 431.568,132.9L431.568,97.5A7.5,7.5 0 0 0 424.068,90L269.148,90A7.5,7.5 0 0 0 261.648,97.5L261.648,132.9A7.5,7.5 0 0 0 269.148,140.4Z" style="fill:#d0ece8;stroke:rgb(0,0,0);stroke-width:2.16;"/><text x="346.608" y="105.12" fill="rgb(0,0,0)" font-style="italic" text-anchor="middle" dominant-baseline="central">yamalgam-scanner</text><text x="346.608" y="125.28" fill="rgb(0,0,0)" text-anchor="middle" dominant-baseline="central">(tokens)</text><polygon points="346.608,198 342.288,186.48 350.928,186.48" style="fill:rgb(0,0,0);"/><path d="M346.608,140.4L346.608,192.24" style="fill:none;stroke:rgb(0,0,0);stroke-width:2.16;"/><path d="M275.081,248.4L418.135,248.4A7.5,7.5 0 0 0 425.635,240.9L425.635,205.5A7.5,7.5 0 0 0 418.135,198L275.081,198A7.5,7.5 0 0 0 267.581,205.5L267.581,240.9A7.5,7.5 0 0 0 275.081,248.4Z" style="fill:#d0ece8;stroke:rgb(0,0,0);stroke-width:2.16;"/><text x="346.608" y="213.12" fill="rgb(0,0,0)" font-style="italic" text-anchor="middle" dominant-baseline="central">yamalgam-parser</text><text x="346.608" y="233.28" fill="rgb(0,0,0)" text-anchor="middle" dominant-baseline="central">(events)</text><path d="M9.66,403.2L107.556,403.2A7.5,7.5 0 0 0 115.056,395.7L115.056,360.3A7.5,7.5 0 0 0 107.556,352.8L9.66,352.8A7.5,7.5 0 0 0 2.16,360.3L2.16,395.7A7.5,7.5 0 0 0 9.66,403.2Z" style="fill:#d8ecd0;stroke:rgb(0,0,0);stroke-width:2.16;"/><text x="58.608" y="367.92" fill="rgb(0,0,0)" text-anchor="middle" dominant-baseline="central">Streaming</text><text x="58.608" y="388.08" fill="rgb(0,0,0)" text-anchor="middle" dominant-baseline="central">serde Deser</text><text x="58.608" y="409.68" fill="rgb(0,0,0)" font-style="italic" font-size="80%" text-anchor="middle" dominant-baseline="central">zero alloc</text><path d="M219.612,403.2L272.004,403.2A7.5,7.5 0 0 0 279.504,395.7L279.504,360.3A7.5,7.5 0 0 0 272.004,352.8L219.612,352.8A7.5,7.5 0 0 0 212.112,360.3L212.112,395.7A7.5,7.5 0 0 0 219.612,403.2Z" style="fill:#d8ecd0;stroke:rgb(0,0,0);stroke-width:2.16;"/><text x="245.808" y="367.92" fill="rgb(0,0,0)" text-anchor="middle" dominant-baseline="central">Value</text><text x="245.808" y="388.08" fill="rgb(0,0,0)" text-anchor="middle" dominant-baseline="central">(DOM)</text><text x="245.808" y="409.68" fill="rgb(0,0,0)" font-style="italic" font-size="80%" text-anchor="middle" dominant-baseline="central">lossy</text><path d="M410.153,403.2L484.663,403.2A7.5,7.5 0 0 0 492.163,395.7L492.163,360.3A7.5,7.5 0 0 0 484.663,352.8L410.153,352.8A7.5,7.5 0 0 0 402.653,360.3L402.653,395.7A7.5,7.5 0 0 0 410.153,403.2Z" style="fill:#ffd8a8;stroke:rgb(0,0,0);stroke-width:2.16;"/><text x="447.408" y="367.92" fill="rgb(0,0,0)" text-anchor="middle" dominant-baseline="central">CST</text><text x="447.408" y="388.08" fill="rgb(0,0,0)" text-anchor="middle" dominant-baseline="central">(lossless)</text><text x="447.408" y="409.68" fill="rgb(0,0,0)" font-style="italic" font-size="80%" text-anchor="middle" dominant-baseline="central">round-trip</text><path d="M595.279,403.2L673.937,403.2A7.5,7.5 0 0 0 681.437,395.7L681.437,360.3A7.5,7.5 0 0 0 673.937,352.8L595.279,352.8A7.5,7.5 0 0 0 587.779,360.3L587.779,395.7A7.5,7.5 0 0 0 595.279,403.2Z" style="fill:#d8ecd0;stroke:rgb(0,0,0);stroke-width:2.16;"/><text x="634.608" y="367.92" fill="rgb(0,0,0)" text-anchor="middle" dominant-baseline="central">SAX /</text><text x="634.608" y="388.08" fill="rgb(0,0,0)" text-anchor="middle" dominant-baseline="central">Callbacks</text><text x="634.608" y="409.68" fill="rgb(0,0,0)" font-style="italic" font-size="80%" text-anchor="middle" dominant-baseline="central">zero alloc</text><polygon points="58.608,352.8 54.288,341.28 62.928,341.28" style="fill:rgb(0,0,0);"/><path d="M346.608,248.4L346.608,272.4Q346.608,284.4 334.608,284.4L70.608,284.4Q58.608,284.4 58.608,296.4L58.608,335.04L58.608,347.04" style="fill:none;stroke:rgb(0,0,0);stroke-width:2.16;"/><polygon points="245.808,352.8 250.702,341.512 256.918,347.513" style="fill:rgb(0,0,0);"/><path d="M346.608,248.4L249.809,348.656" style="fill:none;stroke:rgb(0,0,0);stroke-width:2.16;"/><polygon points="447.408,352.8 443.088,341.28 451.728,341.28" style="fill:rgb(0,0,0);"/><path d="M346.608,248.4L346.608,272.4Q346.608,284.4 358.608,284.4L435.408,284.4Q447.408,284.4 447.408,296.4L447.408,335.04L447.408,347.04" style="fill:none;stroke:rgb(0,0,0);stroke-width:2.16;"/><polygon points="634.608,352.8 630.288,341.28 638.928,341.28" style="fill:rgb(0,0,0);"/><path d="M346.608,248.4L346.608,272.4Q346.608,284.4 358.608,284.4L622.608,284.4Q634.608,284.4 634.608,296.4L634.608,335.04L634.608,347.04" style="fill:none;stroke:rgb(0,0,0);stroke-width:2.16;"/><text x="346.608" y="303.12" fill="rgb(0,0,0)" font-weight="bold" text-anchor="middle" dominant-baseline="central">User chooses materialization strategy</text><path d="M201.468,532.8L290.148,532.8A7.5,7.5 0 0 0 297.648,525.3L297.648,489.9A7.5,7.5 0 0 0 290.148,482.4L201.468,482.4A7.5,7.5 0 0 0 193.968,489.9L193.968,525.3A7.5,7.5 0 0 0 201.468,532.8Z" style="fill:#e8d8ec;stroke:rgb(0,0,0);stroke-width:2.16;"/><text x="245.808" y="497.52" fill="rgb(0,0,0)" text-anchor="middle" dominant-baseline="central">serde</text><text x="245.808" y="517.68" fill="rgb(0,0,0)" text-anchor="middle" dominant-baseline="central">from Value</text><polygon points="245.808,482.4 241.488,470.88 250.128,470.88" style="fill:rgb(0,0,0);"/><path d="M245.808,403.2L245.808,476.64" style="fill:none;stroke:rgb(0,0,0);stroke-width:2.16;"/><path d="M346.332,547.92L375.684,547.92A7.5,7.5 0 0 0 383.184,540.42L383.184,525.18A7.5,7.5 0 0 0 375.684,517.68L346.332,517.68A7.5,7.5 0 0 0 338.832,525.18L338.832,540.42A7.5,7.5 0 0 0 346.332,547.92Z" style="fill:#e8d8ec;stroke:rgb(0,0,0);stroke-width:2.16;"/><text x="361.008" y="532.8" fill="rgb(0,0,0)" text-anchor="middle" dominant-baseline="central">LSP</text><path d="M423.458,547.92L471.358,547.92A7.5,7.5 0 0 0 478.858,540.42L478.858,525.18A7.5,7.5 0 0 0 471.358,517.68L423.458,517.68A7.5,7.5 0 0 0 415.958,525.18L415.958,540.42A7.5,7.5 0 0 0 423.458,547.92Z" style="fill:#e8d8ec;stroke:rgb(0,0,0);stroke-width:2.16;"/><text x="447.408" y="532.8" fill="rgb(0,0,0)" text-anchor="middle" dominant-baseline="central">Linter</text><path d="M510.665,558L571.351,558A7.5,7.5 0 0 0 578.851,550.5L578.851,515.1A7.5,7.5 0 0 0 571.351,507.6L510.665,507.6A7.5,7.5 0 0 0 503.165,515.1L503.165,550.5A7.5,7.5 0 0 0 510.665,558Z" style="fill:#e8d8ec;stroke:rgb(0,0,0);stroke-width:2.16;"/><text x="541.008" y="522.72" fill="rgb(0,0,0)" text-anchor="middle" dominant-baseline="central">Pretty</text><text x="541.008" y="542.88" fill="rgb(0,0,0)" text-anchor="middle" dominant-baseline="central">Emitter</text><polygon points="361.008,517.68 356.688,506.16 365.328,506.16" style="fill:rgb(0,0,0);"/><path d="M447.408,403.2L447.408,420Q447.408,432 435.408,432L373.008,432Q361.008,432 361.008,444L361.008,499.92L361.008,511.92" style="fill:none;stroke:rgb(0,0,0);stroke-width:2.16;"/><polygon points="447.408,517.68 443.088,506.16 451.728,506.16" style="fill:rgb(0,0,0);"/><path d="M447.408,403.2L447.408,511.92" style="fill:none;stroke:rgb(0,0,0);stroke-width:2.16;"/><polygon points="541.008,507.6 536.688,496.08 545.328,496.08" style="fill:rgb(0,0,0);"/><path d="M447.408,403.2L447.408,420Q447.408,432 459.408,432L529.008,432Q541.008,432 541.008,444L541.008,489.84L541.008,501.84" style="fill:none;stroke:rgb(0,0,0);stroke-width:2.16;"/></svg>